<svg width="272" height="416" viewBox="0 0 272 416" fill="none" xmlns="http://www.w3.org/2000/svg">
<path d="M21.0559 -1.09691e-05C9.43488 -1.14771e-05 3.01052e-05 9.43362 2.95973e-05 21.0531L1.32539e-05 394.947C1.2746e-05 406.566 9.43486 416 21.0558 416L250.944 416C262.565 416 272 406.566 272 394.947L272 21.0531C272 9.43363 262.565 -4.12411e-07 250.944 -9.2038e-07L21.0559 -1.09691e-05Z" fill="#025EAC"/>
<path d="M21.0559 -1.09691e-05C9.43488 -1.14771e-05 3.01052e-05 9.43362 2.95973e-05 21.0531L1.32539e-05 394.947C1.2746e-05 406.566 9.43486 416 21.0558 416L250.944 416C262.565 416 272 406.566 272 394.947L272 21.0531C272 9.43363 262.565 -4.12411e-07 250.944 -9.2038e-07L21.0559 -1.09691e-05Z" fill="url(#paint0_linear)"/>
<path d="M31.4108 48.8938C31.1806 48.3186 30.8355 47.0531 30.8355 45.4425C30.8355 40.8407 33.712 38.4248 37.5089 38.4248C42.1113 38.4248 44.6426 41.646 44.6426 45.7876C44.6426 47.3983 44.2974 48.5487 44.0673 49.1239L41.651 48.5487C41.8812 47.9735 42.1113 47.0531 42.1113 46.0177C42.1113 43.6018 40.6155 41.7611 37.624 41.7611C34.9776 41.7611 33.2517 43.3717 33.2517 46.0177C33.2517 46.9381 33.4818 47.9735 33.712 48.5487L31.4108 48.8938Z" fill="#FCD21D"/>
<path d="M44.2972 53.2655C44.4123 54.1859 44.5273 55.6814 44.5273 57.2921C44.5273 59.2478 44.1822 60.6283 43.4918 61.6637C42.8014 62.469 41.881 62.9292 40.7304 62.9292C39.0045 62.9292 37.8539 61.6637 37.3937 60.5133L37.2786 60.5133C36.9334 61.4336 36.013 62.0089 34.7473 62.354C33.2515 62.8142 31.5256 63.1593 30.9504 63.3894L30.9504 60.2832C31.2955 60.0531 32.4461 59.708 34.0569 59.3628C35.7828 59.0177 36.128 58.4425 36.2431 57.177L36.2431 56.2567L30.9504 56.2567L30.9504 53.2655L44.2972 53.2655ZM38.5443 56.2567L38.5443 57.4071C38.5443 58.9027 39.3497 59.823 40.5003 59.823C41.7659 59.823 42.3412 59.0177 42.3412 57.6372C42.3412 56.9469 42.2262 56.4867 42.2262 56.2567L38.5443 56.2567Z" fill="#FCD21D"/>
<path d="M36.7039 75.3539L36.7039 70.407L33.4823 70.407L33.4823 75.9292L30.951 75.9292L30.951 67.4159L44.2979 67.4159L44.2979 75.6991L41.7665 75.6991L41.7665 70.5221L39.0051 70.5221L39.0051 75.469L36.7039 75.469L36.7039 75.3539Z" fill="#FCD21D"/>
<path d="M44.2972 80.416C44.5273 81.5665 44.5273 82.947 44.5273 84.5576C44.5273 87.0886 44.0671 88.6992 43.1466 90.0797C42.1111 91.4603 40.5003 92.3806 38.084 92.3806C35.5527 92.3806 33.7118 91.4603 32.6762 90.1948C31.5256 88.8142 30.9504 86.6284 30.9504 83.9824C30.9504 82.3718 31.0654 81.3364 31.1805 80.5311L44.2972 80.5311L44.2972 80.416ZM33.3666 83.4072C33.2515 83.6373 33.2515 84.0974 33.2515 84.4426C33.2515 87.2036 34.7473 88.9293 37.969 88.9293C40.7304 88.9293 42.2262 87.3187 42.2262 84.6726C42.2262 83.9824 42.1111 83.5222 42.1111 83.2921L33.3666 83.2921L33.3666 83.4072Z" fill="#FCD21D"/>
<path d="M44.4121 99.9734L31.0653 99.9734L31.0653 96.9823L44.4121 96.9823L44.4121 99.9734Z" fill="#FCD21D"/>
<path d="M41.8808 108.027L41.8808 104.46L44.4121 104.46L44.4121 114.699L41.8808 114.699L41.8808 111.018L31.0653 111.018L31.0653 108.027L41.8808 108.027Z" fill="#FCD21D"/>
<path d="M31.4108 141.274C31.1806 140.699 30.8355 139.434 30.8355 137.823C30.8355 133.221 33.712 130.805 37.5089 130.805C42.1113 130.805 44.6426 134.027 44.6426 138.168C44.6426 139.779 44.2974 140.929 44.0673 141.505L41.651 140.929C41.8812 140.354 42.1113 139.434 42.1113 138.398C42.1113 135.982 40.6155 134.142 37.624 134.142C34.9776 134.142 33.2517 135.752 33.2517 138.398C33.2517 139.319 33.4818 140.354 33.712 140.929L31.4108 141.274Z" fill="#FCD21D"/>
<path d="M34.517 149.327L31.0653 148.407L31.0653 145.301L44.4121 149.442L44.4121 153.469L31.0652 157.611L31.0652 154.389L34.517 153.354L34.517 149.327ZM36.7031 152.779L39.5796 151.858C40.385 151.628 41.4206 151.398 42.1109 151.168C41.3055 150.938 40.27 150.823 39.5796 150.593L36.7031 149.788L36.7031 152.779Z" fill="#FCD21D"/>
<path d="M44.2972 161.982C44.4123 162.903 44.5273 164.398 44.5273 166.009C44.5273 167.965 44.1822 169.345 43.4918 170.381C42.8014 171.186 41.881 171.646 40.7304 171.646C39.0045 171.646 37.8539 170.381 37.3937 169.23L37.2786 169.23C36.9334 170.15 36.013 170.726 34.7473 171.071C33.2515 171.531 31.5256 171.876 30.9504 172.106L30.9504 169C31.2955 168.77 32.4461 168.425 34.0569 168.08C35.7828 167.735 36.128 167.159 36.2431 165.894L36.2431 164.973L30.9504 164.973L30.9504 161.982L44.2972 161.982ZM38.5443 165.088L38.5443 166.239C38.5443 167.735 39.3497 168.655 40.5003 168.655C41.7659 168.655 42.3412 167.85 42.3412 166.469C42.3412 165.779 42.2262 165.319 42.2262 165.088L38.5443 165.088Z" fill="#FCD21D"/>
<path d="M44.2972 176.593C44.5273 177.743 44.5273 179.124 44.5273 180.734C44.5273 183.265 44.0671 184.876 43.1466 186.257C42.1111 187.637 40.5003 188.557 38.084 188.557C35.5527 188.557 33.7118 187.637 32.6762 186.372C31.5256 184.991 30.9504 182.805 30.9504 180.159C30.9504 178.549 31.0654 177.513 31.1805 176.708L44.2972 176.708L44.2972 176.593ZM33.3666 179.584C33.2515 179.814 33.2515 180.274 33.2515 180.619C33.2515 183.381 34.7473 185.106 37.969 185.106C40.7304 185.106 42.2262 183.496 42.2262 180.85C42.2262 180.159 42.1111 179.699 42.1111 179.469L33.3666 179.469L33.3666 179.584Z" fill="#FCD21D"/>
<g opacity="0.6">
<path opacity="0.6" d="M69.1507 42.6815C69.1507 41.301 70.1862 40.3806 71.4519 40.3806C72.8326 40.3806 73.7531 41.5311 73.7531 42.6815L73.7531 46.0178L88.4806 46.0178L88.4806 42.6815C88.4806 41.6461 89.2861 40.3806 90.7818 40.3806C92.0475 40.3806 93.083 41.416 93.083 42.6815L93.083 50.6196L73.7531 50.6196L73.7531 51.5399L78.7006 51.5399C79.8512 51.5399 81.0018 52.5753 81.0018 53.8408C81.0018 55.1063 79.8512 56.1417 78.7006 56.1417L71.4519 56.1417C70.1862 56.1417 69.1507 55.1063 69.1507 53.8408L69.1507 42.6815Z" fill="#333349"/>
<path opacity="0.6" d="M69.1505 60.3984L79.736 60.3984C81.807 60.3984 83.4179 62.2391 83.4179 64.0798L83.4179 71.6727L88.3654 71.6727L88.3654 62.5842C88.3654 61.5488 89.1708 60.2833 90.6666 60.2833C91.9322 60.2833 92.9678 61.3187 92.9678 62.5842L92.9678 72.5931C92.9678 74.5488 91.2419 76.2745 89.2859 76.2745L82.4974 76.2745C80.1962 76.2745 78.7004 74.4338 78.7004 72.5931L78.7004 65.0001L73.6378 65.0001L73.6378 73.9736C73.6378 75.009 72.7174 76.2745 71.3367 76.2745C69.9559 76.2745 69.0355 75.2391 69.0355 73.9736L69.0355 60.3984L69.1505 60.3984Z" fill="#333349"/>
<path opacity="0.6" d="M69.1505 83.2922C69.1505 82.1418 69.9559 80.9913 71.4517 80.9913C72.7174 80.9913 73.7529 82.0267 73.7529 83.2922L73.7529 92.2657L78.3553 92.2657C78.5854 92.2657 78.8155 92.0356 78.8155 91.8055L78.8155 86.1683C78.8155 85.0179 79.9661 83.8674 81.1167 83.8674C82.4974 83.8674 83.4179 85.0179 83.4179 86.1683L83.4179 91.9205C83.4179 92.1506 83.648 92.3807 83.8781 92.3807L88.3654 92.3807L88.3654 83.2922C88.3654 82.2568 89.1708 80.9913 90.6666 80.9913C91.9322 80.9913 92.9678 82.0267 92.9678 83.2922L92.9678 93.3011C92.9678 95.3719 91.2419 96.9825 89.2859 96.9825L83.9932 96.9825C82.7275 96.9825 81.807 96.7524 81.0016 96.1772C80.1962 96.7524 79.2757 96.9825 78.1251 96.9825L72.6023 96.9825C70.6463 96.9825 68.9204 95.3719 68.9204 93.3011L68.9204 83.2922L69.1505 83.2922Z" fill="#333349"/>
<path opacity="0.6" d="M76.3994 109.177L76.3994 100.779L90.7818 100.779C92.0475 100.779 93.083 101.814 93.083 103.08C93.083 104.23 92.0475 105.381 90.7818 105.381L81.1169 105.381L81.1169 109.177L88.3656 109.177C89.5162 109.177 90.6668 109.982 90.6668 111.478C90.6668 112.628 89.7463 113.779 88.3656 113.779L80.8867 113.779C80.4265 114.584 79.8512 115.159 78.8157 115.159C78.0103 115.159 76.9747 114.699 76.6295 113.779L71.4519 113.779C70.0712 113.779 69.1507 112.744 69.1507 111.478C69.1507 110.328 69.9561 109.177 71.4519 109.177L76.3994 109.177Z" fill="#333349"/>
<path opacity="0.6" d="M69.1505 137.593C69.1505 136.903 69.2656 136.212 69.6108 135.407L70.4162 133.336C70.8764 132.301 71.5668 131.956 72.6023 131.956C73.6378 131.956 74.9035 132.876 74.9035 134.142C74.9035 134.602 74.7884 134.947 74.5583 135.522L73.6378 137.708L73.6378 143.23L78.7004 143.23L78.7004 134.832L90.5515 134.832L92.9678 137.248L92.9678 145.531C92.9678 146.681 91.9322 147.832 90.6666 147.832C89.4009 147.832 88.3654 146.797 88.3654 145.531L88.3654 139.434L83.4179 139.434L83.4179 144.151C83.4179 146.221 81.5769 147.947 79.736 147.947L72.8324 147.947C70.8764 147.947 69.1505 146.336 69.1505 144.151L69.1505 137.593Z" fill="#333349"/>
<path opacity="0.6" d="M69.1507 154.735C69.1507 153.584 70.1862 152.434 71.4519 152.434L90.7818 152.434C92.0475 152.434 93.083 153.469 93.083 154.735L93.083 156.115C93.083 157.381 91.9324 158.416 90.7818 158.416C89.8613 158.416 88.8258 157.726 88.5957 157.035L81.0018 157.035L81.0018 166.009C81.0018 167.274 79.8512 168.31 78.7006 168.31L71.4519 168.31C70.0712 168.31 69.1507 167.159 69.1507 166.009L69.1507 154.735ZM76.3994 163.593L76.3994 156.92L73.7531 156.92L73.7531 163.593L76.3994 163.593Z" fill="#333349"/>
<path opacity="0.6" d="M78.4705 173.832C79.2759 173.832 79.9663 174.062 80.4265 174.637L84.5686 179.469L88.4806 179.469L88.4806 172.567C87.6752 172.106 87.33 171.416 87.33 170.496C87.33 169.23 88.3656 168.195 89.6312 168.195L90.7818 168.195C92.0475 168.195 93.083 169.115 93.083 170.496L93.083 184.071L83.5331 184.071C82.8427 184.071 82.2674 183.841 81.6922 183.266L77.55 178.434L71.4519 178.434C70.3013 178.434 69.1507 177.513 69.1507 176.133C69.1507 174.867 70.0712 173.717 71.4519 173.717L78.4705 173.717L78.4705 173.832Z" fill="#333349"/>
<path opacity="0.6" d="M69.1507 190.628C69.1507 188.558 70.8766 186.832 72.8326 186.832L79.7361 186.832C81.347 186.832 82.9578 188.098 83.303 189.708L90.7818 189.708C92.0475 189.708 93.083 190.744 93.083 192.009L93.083 197.761C93.083 199.027 92.0475 200.062 90.7818 200.062L83.303 200.062C82.9578 201.673 81.462 202.823 79.7361 202.823L72.8326 202.823C70.8766 202.823 69.1507 201.098 69.1507 199.142L69.1507 190.628ZM78.8157 198.221L78.8157 191.549L73.7531 191.549L73.7531 198.221L78.8157 198.221ZM88.4806 195.46L88.4806 194.425L83.5331 194.425L83.5331 195.46L88.4806 195.46Z" fill="#333349"/>
<path opacity="0.6" d="M69.1507 231.354C69.1507 230.204 69.9561 229.053 71.4519 229.053C72.3723 229.053 73.1778 229.513 73.5229 230.434L81.2319 230.434L81.2319 221.46C81.2319 220.31 82.1524 219.159 83.5331 219.159L90.7818 219.159C91.9324 219.159 93.083 220.08 93.083 221.46L93.083 232.735C93.083 234 91.9324 235.036 90.7818 235.036L71.4519 235.036C70.1862 235.036 69.1507 234.115 69.1507 232.735L69.1507 231.354ZM88.4806 230.549L88.4806 223.876L85.9493 223.876L85.9493 230.549L88.4806 230.549Z" fill="#333349"/>
<path opacity="0.6" d="M69.1505 243.319C69.1505 241.133 70.6463 239.637 72.7174 239.637L89.4009 239.637C91.472 239.637 92.9678 241.363 92.9678 243.319L92.9678 252.062C92.9678 254.018 91.2419 255.628 89.4009 255.628L72.7174 255.628C70.6463 255.628 69.1505 254.018 69.1505 252.062L69.1505 243.319ZM88.4805 251.027L88.4805 244.354L73.868 244.354L73.868 251.027L88.4805 251.027Z" fill="#333349"/>
<path opacity="0.6" d="M69.1507 262.531C69.1507 261.151 70.1862 260.23 71.4519 260.23C72.8326 260.23 73.7531 261.381 73.7531 262.531L73.7531 265.867L88.4806 265.867L88.4806 262.531C88.4806 261.496 89.2861 260.23 90.7818 260.23C92.0475 260.23 93.083 261.266 93.083 262.531L93.083 270.469L73.7531 270.469L73.7531 271.39L78.7006 271.39C79.8512 271.39 81.0018 272.425 81.0018 273.69C81.0018 274.956 79.8512 275.991 78.7006 275.991L71.4519 275.991C70.1862 275.991 69.1507 274.956 69.1507 273.69L69.1507 262.531Z" fill="#333349"/>
<path opacity="0.6" d="M69.1505 280.248L79.736 280.248C81.807 280.248 83.4179 282.089 83.4179 283.929L83.4179 291.522L88.3654 291.522L88.3654 282.434C88.3654 281.398 89.1708 280.133 90.6666 280.133C91.9322 280.133 92.9678 281.168 92.9678 282.434L92.9678 292.443C92.9678 294.398 91.2419 296.124 89.2859 296.124L82.4974 296.124C80.1962 296.124 78.7004 294.283 78.7004 292.443L78.7004 284.85L73.6378 284.85L73.6378 293.823C73.6378 294.859 72.7174 296.124 71.3367 296.124C69.9559 296.124 69.0355 295.089 69.0355 293.823L69.0355 280.248L69.1505 280.248Z" fill="#333349"/>
<path opacity="0.6" d="M69.1505 316.027C69.1505 314.876 69.9559 313.726 71.4517 313.726C72.7174 313.726 73.7529 314.761 73.7529 316.027L73.7529 325L78.3553 325C78.5854 325 78.8155 324.77 78.8155 324.54L78.8155 318.903C78.8155 317.752 79.9661 316.602 81.1167 316.602C82.4974 316.602 83.4179 317.752 83.4179 318.903L83.4179 324.655C83.4179 324.885 83.648 325.115 83.8781 325.115L88.3654 325.115L88.3654 316.027C88.3654 314.991 89.1708 313.726 90.6666 313.726C91.9322 313.726 92.9678 314.761 92.9678 316.027L92.9678 326.035C92.9678 328.106 91.2419 329.717 89.2859 329.717L83.9932 329.717C82.7275 329.717 81.807 329.487 81.0016 328.912C80.1962 329.487 79.2757 329.717 78.1251 329.717L72.6023 329.717C70.6463 329.717 68.9204 328.106 68.9204 326.035L68.9204 316.027L69.1505 316.027Z" fill="#333349"/>
<path opacity="0.6" d="M76.3994 342.027L76.3994 333.628L90.7818 333.628C92.0475 333.628 93.083 334.664 93.083 335.929C93.083 337.08 92.0475 338.23 90.7818 338.23L81.1169 338.23L81.1169 342.027L88.3656 342.027C89.5162 342.027 90.6668 342.832 90.6668 344.328C90.6668 345.478 89.7463 346.628 88.3656 346.628L80.8867 346.628C80.4265 347.434 79.8512 348.009 78.8157 348.009C78.0103 348.009 76.9747 347.549 76.6295 346.628L71.4519 346.628C70.0712 346.628 69.1507 345.593 69.1507 344.328C69.1507 343.177 69.9561 342.027 71.4519 342.027L76.3994 342.027Z" fill="#333349"/>
<path opacity="0.6" d="M69.1505 357.442C69.1505 356.752 69.2656 356.062 69.6108 355.257L70.4162 353.186C70.8764 352.15 71.5668 351.805 72.6023 351.805C73.6378 351.805 74.9035 352.726 74.9035 353.991C74.9035 354.451 74.7884 354.796 74.5583 355.372L73.6378 357.558L73.6378 363.08L78.7004 363.08L78.7004 354.681L90.5515 354.681L92.9678 357.097L92.9678 365.381C92.9678 366.531 91.9322 367.681 90.6666 367.681C89.4009 367.681 88.3654 366.646 88.3654 365.381L88.3654 359.283L83.4179 359.283L83.4179 364C83.4179 366.071 81.5769 367.796 79.736 367.796L72.8324 367.796C70.8764 367.796 69.1505 366.186 69.1505 364L69.1505 357.442Z" fill="#333349"/>
<path opacity="0.6" d="M69.1507 374.584C69.1507 373.434 70.1862 372.283 71.4519 372.283L90.7818 372.283C92.0475 372.283 93.083 373.319 93.083 374.584L93.083 375.965C93.083 377.23 91.9324 378.266 90.7818 378.266C89.8613 378.266 88.8258 377.575 88.5957 376.885L81.0018 376.885L81.0018 385.859C81.0018 387.124 79.8512 388.159 78.7006 388.159L71.4519 388.159C70.0712 388.159 69.1507 387.009 69.1507 385.859L69.1507 374.584ZM76.3994 383.443L76.3994 376.77L73.7531 376.77L73.7531 383.443L76.3994 383.443Z" fill="#333349"/>
</g>
<path d="M71.681 40.0355C71.681 38.655 72.7165 37.7346 73.9821 37.7346C75.3629 37.7346 76.2833 38.8851 76.2833 40.0355L76.2833 43.3718L91.0109 43.3718L91.0109 40.0355C91.0109 39.0001 91.8163 37.7346 93.3121 37.7346C94.5777 37.7346 95.6133 38.77 95.6133 40.0355L95.6133 47.9736L76.2833 47.9736L76.2833 48.8939L81.2309 48.8939C82.3815 48.8939 83.5321 49.9293 83.5321 51.1948C83.5321 52.4603 82.3815 53.4957 81.2309 53.4957L73.9821 53.4957C72.7165 53.4957 71.681 52.4603 71.681 51.1948L71.681 40.0355Z" fill="white"/>
<path d="M71.6813 57.8674L82.2667 57.8674C84.3378 57.8674 85.9486 59.7081 85.9486 61.5488L85.9486 69.1417L90.8962 69.1417L90.8962 60.0532C90.8962 59.0178 91.7016 57.7523 93.1974 57.7523C94.463 57.7523 95.4985 58.7877 95.4985 60.0532L95.4985 70.0621C95.4985 72.0178 93.7726 73.7435 91.8166 73.7435L85.0281 73.7435C82.727 73.7435 81.2312 71.9028 81.2312 70.0621L81.2312 62.4691L76.1686 62.4691L76.1686 71.4426C76.1686 72.478 75.2481 73.7435 73.8674 73.7435C72.4867 73.7435 71.5662 72.7081 71.5662 71.4426L71.5662 57.8674L71.6813 57.8674Z" fill="white"/>
<path d="M71.6813 80.6461C71.6813 79.4957 72.4867 78.3452 73.9824 78.3452C75.2481 78.3452 76.2836 79.3806 76.2836 80.6461L76.2836 89.6196L80.886 89.6196C81.1161 89.6196 81.3462 89.3895 81.3462 89.1594L81.3462 83.5222C81.3462 82.3718 82.4968 81.2213 83.6474 81.2213C85.0281 81.2213 85.9486 82.3718 85.9486 83.5222L85.9486 89.2744C85.9486 89.5045 86.1787 89.7346 86.4088 89.7346L90.8962 89.7346L90.8962 80.6461C90.8962 79.6107 91.7016 78.3452 93.1974 78.3452C94.463 78.3452 95.4985 79.3806 95.4985 80.6461L95.4985 90.655C95.4985 92.7258 93.7726 94.3364 91.8166 94.3364L86.5239 94.3364C85.2583 94.3364 84.3378 94.1063 83.5324 93.5311C82.727 94.1063 81.8065 94.3364 80.6559 94.3364L75.133 94.3364C73.177 94.3364 71.4512 92.7257 71.4512 90.655L71.4512 80.6461L71.6813 80.6461Z" fill="white"/>
<path d="M78.9302 106.646L78.9302 98.2478L93.3126 98.2478C94.5782 98.2478 95.6138 99.2832 95.6138 100.549C95.6138 101.699 94.5782 102.85 93.3126 102.85L83.6476 102.85L83.6476 106.646L90.8964 106.646C92.0469 106.646 93.1975 107.451 93.1975 108.947C93.1975 110.097 92.2771 111.248 90.8964 111.248L83.4175 111.248C82.9573 112.053 82.382 112.628 81.3464 112.628C80.541 112.628 79.5055 112.168 79.1603 111.248L73.9826 111.248C72.6019 111.248 71.6814 110.212 71.6814 108.947C71.6814 107.796 72.4869 106.646 73.9826 106.646L78.9302 106.646Z" fill="white"/>
<path d="M71.6813 135.062C71.6813 134.372 71.7963 133.681 72.1415 132.876L72.9469 130.805C73.4072 129.77 74.0975 129.425 75.133 129.425C76.1686 129.425 77.4342 130.345 77.4342 131.611C77.4342 132.071 77.3192 132.416 77.0891 132.991L76.1686 135.177L76.1686 140.699L81.2312 140.699L81.2312 132.301L93.0823 132.301L95.4985 134.717L95.4985 143C95.4985 144.15 94.463 145.301 93.1974 145.301C91.9317 145.301 90.8962 144.266 90.8962 143L90.8962 136.903L85.9486 136.903L85.9486 141.619C85.9486 143.69 84.1077 145.416 82.2667 145.416L75.3632 145.416C73.4072 145.416 71.6813 143.805 71.6813 141.619L71.6813 135.062Z" fill="white"/>
<path d="M71.6814 152.204C71.6814 151.053 72.717 149.903 73.9826 149.903L93.3126 149.903C94.5782 149.903 95.6138 150.938 95.6138 152.204L95.6138 153.584C95.6138 154.85 94.4632 155.885 93.3126 155.885C92.3921 155.885 91.3566 155.195 91.1265 154.504L83.5326 154.504L83.5326 163.478C83.5326 164.743 82.382 165.779 81.2314 165.779L73.9826 165.779C72.6019 165.779 71.6814 164.628 71.6814 163.478L71.6814 152.204ZM78.9302 161.062L78.9302 154.389L76.2838 154.389L76.2838 161.062L78.9302 161.062Z" fill="white"/>
<path d="M81.1165 171.301C81.9219 171.301 82.6123 171.531 83.0725 172.106L87.2146 176.938L91.1266 176.938L91.1266 170.035C90.3212 169.575 89.976 168.885 89.976 167.965C89.976 166.699 91.0116 165.664 92.2772 165.664L93.4278 165.664C94.6935 165.664 95.729 166.584 95.729 167.965L95.729 181.54L86.1791 181.54C85.4887 181.54 84.9134 181.31 84.3381 180.734L80.196 175.903L74.0979 175.903C72.9473 175.903 71.7967 174.982 71.7967 173.602C71.7967 172.336 72.7172 171.186 74.0979 171.186L81.1165 171.186L81.1165 171.301Z" fill="white"/>
<path d="M71.6814 188.097C71.6814 186.027 73.4074 184.301 75.3634 184.301L82.2669 184.301C83.8777 184.301 85.4886 185.566 85.8337 187.177L93.3126 187.177C94.5782 187.177 95.6138 188.212 95.6138 189.478L95.6138 195.23C95.6138 196.496 94.5782 197.531 93.3126 197.531L85.8337 197.531C85.4886 199.142 83.9928 200.292 82.2669 200.292L75.3634 200.292C73.4073 200.292 71.6814 198.566 71.6814 196.611L71.6814 188.097ZM81.4615 195.69L81.4615 189.018L76.3989 189.018L76.3989 195.69L81.4615 195.69ZM91.0114 192.814L91.0114 191.779L86.0639 191.779L86.0639 192.814L91.0114 192.814Z" fill="white"/>
<path d="M71.6814 228.823C71.6814 227.673 72.4869 226.522 73.9826 226.522C74.9031 226.522 75.7085 226.982 76.0537 227.903L83.7627 227.903L83.7627 218.929C83.7627 217.779 84.6831 216.628 86.0639 216.628L93.3126 216.628C94.4632 216.628 95.6138 217.549 95.6138 218.929L95.6138 230.204C95.6138 231.469 94.4632 232.505 93.3126 232.505L73.9826 232.505C72.717 232.505 71.6814 231.584 71.6814 230.204L71.6814 228.823ZM91.0114 228.018L91.0114 221.345L88.4801 221.345L88.4801 228.018L91.0114 228.018Z" fill="white"/>
<path d="M71.6813 240.788C71.6813 238.602 73.177 237.106 75.2481 237.106L91.9317 237.106C94.0028 237.106 95.4985 238.832 95.4985 240.788L95.4985 249.531C95.4985 251.487 93.7726 253.097 91.9317 253.097L75.2481 253.097C73.177 253.097 71.6813 251.487 71.6813 249.531L71.6813 240.788ZM91.0112 248.496L91.0112 241.823L76.3987 241.823L76.3987 248.496L91.0112 248.496Z" fill="white"/>
<path d="M71.6814 260C71.6814 258.619 72.717 257.699 73.9826 257.699C75.3633 257.699 76.2838 258.85 76.2838 260L76.2838 263.336L91.0114 263.336L91.0114 260C91.0114 258.965 91.8168 257.699 93.3126 257.699C94.5782 257.699 95.6138 258.734 95.6138 260L95.6138 267.938L76.2838 267.938L76.2838 268.858L81.2314 268.858C82.382 268.858 83.5326 269.894 83.5326 271.159C83.5326 272.425 82.382 273.46 81.2314 273.46L73.9826 273.46C72.717 273.46 71.6814 272.425 71.6814 271.159L71.6814 260Z" fill="white"/>
<path d="M71.6813 277.717L82.2667 277.717C84.3378 277.717 85.9486 279.558 85.9486 281.398L85.9486 288.991L90.8962 288.991L90.8962 279.903C90.8962 278.867 91.7016 277.602 93.1974 277.602C94.463 277.602 95.4985 278.637 95.4985 279.903L95.4985 289.912C95.4985 291.867 93.7726 293.593 91.8166 293.593L85.0281 293.593C82.727 293.593 81.2312 291.752 81.2312 289.912L81.2312 282.319L76.1686 282.319L76.1686 291.292C76.1686 292.327 75.2481 293.593 73.8674 293.593C72.4867 293.593 71.5662 292.558 71.5662 291.292L71.5662 277.717L71.6813 277.717Z" fill="white"/>
<path d="M71.6813 313.496C71.6813 312.345 72.4867 311.195 73.9824 311.195C75.2481 311.195 76.2836 312.23 76.2836 313.496L76.2836 322.469L80.886 322.469C81.1161 322.469 81.3462 322.239 81.3462 322.009L81.3462 316.372C81.3462 315.221 82.4968 314.071 83.6474 314.071C85.0281 314.071 85.9486 315.221 85.9486 316.372L85.9486 322.124C85.9486 322.354 86.1787 322.584 86.4088 322.584L90.8962 322.584L90.8962 313.496C90.8962 312.46 91.7016 311.195 93.1974 311.195C94.463 311.195 95.4985 312.23 95.4985 313.496L95.4985 323.504C95.4985 325.575 93.7726 327.186 91.8166 327.186L86.5239 327.186C85.2583 327.186 84.3378 326.956 83.5324 326.381C82.727 326.956 81.8065 327.186 80.6559 327.186L75.133 327.186C73.177 327.186 71.4512 325.575 71.4512 323.504L71.4512 313.496L71.6813 313.496Z" fill="white"/>
<path d="M78.9302 339.496L78.9302 331.097L93.3126 331.097C94.5782 331.097 95.6138 332.133 95.6138 333.398C95.6138 334.549 94.5782 335.699 93.3126 335.699L83.6476 335.699L83.6476 339.496L90.8964 339.496C92.0469 339.496 93.1975 340.301 93.1975 341.797C93.1975 342.947 92.2771 344.097 90.8964 344.097L83.4175 344.097C82.9573 344.903 82.382 345.478 81.3464 345.478C80.541 345.478 79.5055 345.018 79.1603 344.097L73.9826 344.097C72.6019 344.097 71.6814 343.062 71.6814 341.797C71.6814 340.646 72.4869 339.496 73.9826 339.496L78.9302 339.496Z" fill="white"/>
<path d="M71.6813 354.912C71.6813 354.221 71.7963 353.531 72.1415 352.726L72.9469 350.655C73.4072 349.62 74.0975 349.274 75.133 349.274C76.1686 349.274 77.4342 350.195 77.4342 351.46C77.4342 351.92 77.3192 352.266 77.0891 352.841L76.1686 355.027L76.1686 360.549L81.2312 360.549L81.2312 352.035L93.0823 352.035L95.4985 354.451L95.4985 362.735C95.4985 363.885 94.463 365.035 93.1974 365.035C91.9317 365.035 90.8962 364 90.8962 362.735L90.8962 356.637L85.9486 356.637L85.9486 361.354C85.9486 363.425 84.1077 365.151 82.2667 365.151L75.3632 365.151C73.4072 365.151 71.6813 363.54 71.6813 361.354L71.6813 354.912Z" fill="white"/>
<path d="M71.6814 372.053C71.6814 370.903 72.717 369.752 73.9826 369.752L93.3126 369.752C94.5782 369.752 95.6138 370.788 95.6138 372.053L95.6138 373.434C95.6138 374.699 94.4632 375.735 93.3126 375.735C92.3921 375.735 91.3566 375.044 91.1265 374.354L83.5326 374.354L83.5326 383.327C83.5326 384.593 82.382 385.628 81.2314 385.628L73.9826 385.628C72.6019 385.628 71.6814 384.478 71.6814 383.327L71.6814 372.053ZM78.9302 380.912L78.9302 374.239L76.2838 374.239L76.2838 380.912L78.9302 380.912Z" fill="white"/>
<path d="M203.885 333.053C184.556 333.053 168.792 317.292 168.792 297.965C168.792 278.637 184.44 262.876 203.885 262.876C223.215 262.876 238.979 278.637 238.979 297.965C238.979 317.407 223.215 333.053 203.885 333.053Z" fill="#F9ED32"/>
<path d="M203.885 377.23C184.555 377.23 168.792 361.469 168.792 342.142C168.792 322.814 184.44 307.053 203.885 307.053C223.215 307.053 238.978 322.814 238.978 342.142C238.978 361.469 223.215 377.23 203.885 377.23Z" fill="#FBB040"/>
<path d="M203.885 307.053C192.84 307.053 183.06 312.115 176.616 320.053C183.06 327.991 192.84 333.053 203.885 333.053C214.931 333.053 224.711 327.991 231.154 320.053C224.711 312.115 214.931 307.053 203.885 307.053Z" fill="#F7941E"/>
<path d="M238.978 342.141C238.978 361.469 223.215 377.23 203.885 377.23C184.555 377.23 168.792 361.469 168.792 342.141C168.792 333.743 171.668 326.15 176.616 320.053C171.783 314.071 168.792 306.363 168.792 297.965C168.792 278.637 184.44 262.876 203.885 262.876C223.215 262.876 238.978 278.637 238.978 297.965C238.978 306.363 236.102 313.956 231.154 320.053C236.102 326.035 238.978 333.743 238.978 342.141ZM246.342 342.141C246.342 334.318 244.156 326.726 240.129 320.053C244.156 313.495 246.342 305.788 246.342 297.965C246.342 274.611 227.357 255.513 203.885 255.513C180.528 255.513 161.428 274.611 161.428 297.965C161.428 305.788 163.614 313.38 167.641 320.053C163.614 326.611 161.428 334.318 161.428 342.141C161.428 365.495 180.528 384.593 203.885 384.593C227.242 384.478 246.342 365.495 246.342 342.141Z" fill="#FFFBF8"/>
<path opacity="0.1" d="M272 239.177L272 21.6283C272 10.0088 262.565 0.575195 250.944 0.575194L21.0559 0.575184C9.43488 0.575184 3.01052e-05 10.0088 2.95973e-05 21.6283L2.44831e-05 138.628L272 239.177Z" fill="white"/>
<path d="M123.689 102.504C121.042 102.504 118.971 100.319 118.971 97.7876L118.971 52C118.971 49.354 121.157 47.2832 123.689 47.2832L169.482 47.2832C172.129 47.2832 174.2 49.469 174.2 52L174.2 97.7876C174.2 100.434 172.014 102.504 169.482 102.504L123.689 102.504Z" fill="#FCD21D"/>
<path d="M153.604 47.1681L153.604 63.8495" stroke="#7F7A6C" stroke-width="1.3766" stroke-miterlimit="10"/>
<path d="M174.2 63.8496L118.971 63.8496" stroke="#7F7A6C" stroke-width="1.3766" stroke-miterlimit="10"/>
<path d="M174.2 85.938L118.971 85.938" stroke="#7F7A6C" stroke-width="1.3766" stroke-miterlimit="10"/>
<path d="M153.489 85.938L153.604 102.504" stroke="#7F7A6C" stroke-width="1.3766" stroke-miterlimit="10"/>
<path d="M139.337 85.938L139.452 102.504" stroke="#7F7A6C" stroke-width="1.3766" stroke-miterlimit="10"/>
<path d="M139.452 47.1681L139.452 63.8495" stroke="#7F7A6C" stroke-width="1.3766" stroke-miterlimit="10"/>
<defs>
<linearGradient id="paint0_linear" x1="387.024" y1="368.68" x2="-246.415" y2="-36.8885" gradientUnits="userSpaceOnUse">
<stop stop-color="#3C588F"/>
<stop offset="0.2153" stop-color="#3D5C92"/>
<stop offset="0.4164" stop-color="#41679C"/>
<stop offset="0.6119" stop-color="#487AAC"/>
<stop offset="0.8039" stop-color="#5194C3"/>
<stop offset="0.9917" stop-color="#5DB6E1"/>
<stop offset="1" stop-color="#5EB8E2"/>
</linearGradient>
</defs>
</svg>
