<svg width="76" height="61" viewBox="0 0 76 61" fill="none" xmlns="http://www.w3.org/2000/svg">
<path d="M75.8083 28.0985C75.617 26.639 75.3109 25.2178 74.9282 23.8735C74.6986 23.1437 74.469 22.4524 74.1628 21.761C73.5123 20.1478 72.6704 18.6499 71.6754 17.1903C68.9201 13.1958 65.476 10.0078 61.5344 7.51122C58.7791 5.7444 55.9091 4.47689 52.9242 3.43985C52.0057 3.13258 51.0873 2.8253 50.1689 2.55644C49.5949 2.4028 48.9826 2.21076 48.4086 2.05712C46.763 1.63462 45.0793 1.40416 43.4337 1.25053C41.6352 1.05848 39.7983 0.866437 37.9997 0.904846C36.2011 0.866437 34.3643 1.05848 32.5657 1.25053C30.8819 1.40416 29.1981 1.63462 27.5909 2.05712C27.0168 2.21076 26.4045 2.36439 25.8305 2.55644C24.9121 2.78689 23.9937 3.09417 23.0752 3.43985C20.0904 4.47689 17.2203 5.7444 14.465 7.51122C10.5234 10.0078 7.11755 13.1574 4.324 17.1903C3.32904 18.6115 2.48714 20.1478 1.83659 21.7226C1.56871 22.414 1.30084 23.1053 1.07123 23.8351C0.650286 25.2178 0.344144 26.6005 0.191072 28.0601C-0.459481 33.2069 0.573751 38.0081 2.94636 42.4251C3.06116 42.6172 3.17596 42.8476 3.29077 43.0397C3.52037 43.4622 3.74998 43.8462 4.01786 44.2303C4.01786 44.2687 4.05612 44.2687 4.05612 44.3072C4.78321 45.421 5.54857 46.4965 6.39046 47.4567C8.64827 50.1453 11.327 52.3347 14.2354 54.2167C20.1669 58.0576 26.6342 60.0165 33.3693 60.6694C33.5224 60.6694 33.6372 60.7079 33.7902 60.7079C33.9433 60.7079 34.0581 60.7463 34.2112 60.7463C34.2877 60.7463 34.326 60.7463 34.4025 60.7463C34.5556 60.7463 34.7087 60.7847 34.9 60.7847C35.0913 60.7847 35.2444 60.8231 35.4358 60.8231C35.6271 60.8231 35.7802 60.8615 35.9715 60.8615C36.1246 60.8615 36.3159 60.8615 36.469 60.8999C36.6603 60.8999 36.8517 60.8999 37.0047 60.8999C37.1578 60.8999 37.3492 60.8999 37.5022 60.8999C37.6936 60.8999 37.8466 60.8999 38.038 60.8999C38.2293 60.8999 38.3824 60.8999 38.5737 60.8999C38.7268 60.8999 38.9181 60.8999 39.0712 60.8999C39.2625 60.8999 39.4539 60.8999 39.607 60.8999C39.76 60.8999 39.9514 60.8999 40.1044 60.8615C40.2958 60.8615 40.4488 60.8615 40.6402 60.8231C40.8315 60.8231 40.9846 60.7847 41.1759 60.7847C41.329 60.7847 41.4821 60.7463 41.6734 60.7463C41.75 60.7463 41.7882 60.7463 41.8648 60.7463C42.0178 60.7463 42.1326 60.7079 42.2857 60.7079C42.4388 60.7079 42.5536 60.6694 42.7066 60.6694C49.4418 59.9781 55.9091 58.0192 61.8406 54.2167C64.7489 52.3347 67.4277 50.1453 69.6855 47.4567C70.5274 46.4581 71.2927 45.421 72.0198 44.3072C72.0198 44.2687 72.0581 44.2687 72.0581 44.2303C72.326 43.8462 72.5556 43.4237 72.7852 43.0397C72.9 42.8476 73.0148 42.6172 73.1296 42.4251C75.4257 38.0081 76.4589 33.2069 75.8083 28.0985ZM73.6653 35.0506C73.3209 36.971 72.7469 38.7762 71.9816 40.4278C71.6754 41.1192 71.331 41.7722 70.9483 42.4251C70.336 43.4622 69.6472 44.4224 68.9201 45.3826C67.6955 46.919 66.3179 48.3017 64.8255 49.6076C61.0752 52.834 56.8657 55.0617 52.3501 56.5597C47.6815 58.096 42.9745 58.8258 38.191 58.7874C38.1145 58.7874 38.0762 58.7874 37.9997 58.7874C37.9232 58.7874 37.8849 58.7874 37.8084 58.7874C33.0249 58.7874 28.3179 58.096 23.6493 56.5597C19.0954 55.0617 14.9242 52.834 11.1739 49.6076C9.6815 48.3017 8.26559 46.8806 7.07928 45.3826C6.3522 44.4608 5.66337 43.4622 5.05109 42.4251C4.66841 41.7722 4.324 41.1192 4.01786 40.4278C3.2525 38.7762 2.67848 37.0094 2.33407 35.0506C2.14273 33.9751 2.02793 32.9381 1.95139 31.8626C1.91313 31.3249 1.91313 30.7487 1.91313 30.1726C1.98966 27.9449 2.37234 25.7171 3.1377 23.5662C3.32904 23.0669 3.52037 22.5292 3.74998 22.0299C5.81645 17.4208 8.91614 13.9255 12.6664 11.0449C15.4217 8.93235 18.4066 7.31917 21.5445 6.09008C23.5345 5.3219 25.5627 4.70735 27.6291 4.24644C28.0883 4.13121 28.5475 4.05439 29.0068 3.93917C29.1981 3.90076 29.4277 3.86235 29.619 3.82394C30.0783 3.74712 30.4992 3.6703 30.9584 3.59348C31.1498 3.55508 31.3794 3.51667 31.609 3.47826C31.6472 3.47826 31.6855 3.47826 31.6855 3.47826C32.1065 3.40144 32.5274 3.36303 32.9866 3.32462C33.1397 3.32462 33.331 3.28621 33.4841 3.28621C33.8668 3.2478 34.2112 3.20939 34.5939 3.20939C34.8235 3.20939 35.0531 3.17098 35.2827 3.17098C35.4358 3.17098 35.5888 3.17098 35.7419 3.13258C36.048 3.13258 36.3925 3.09417 36.6986 3.09417C37.1195 3.09417 37.5788 3.05576 37.9997 3.05576C38.4207 3.05576 38.8799 3.05576 39.3008 3.09417C39.607 3.09417 39.9514 3.13258 40.2575 3.13258C40.4106 3.13258 40.5637 3.13258 40.7167 3.17098C40.9463 3.17098 41.1759 3.20939 41.4055 3.20939C41.7882 3.2478 42.1326 3.28621 42.5153 3.28621C42.6684 3.28621 42.8597 3.32462 43.0128 3.32462C43.4337 3.36303 43.8547 3.43985 44.3139 3.47826C44.3522 3.47826 44.3904 3.47826 44.3904 3.47826C44.62 3.51667 44.8114 3.55508 45.041 3.59348C45.5002 3.6703 45.9211 3.74712 46.3804 3.82394C46.5717 3.86235 46.8013 3.90076 46.9926 3.93917C47.4519 4.01599 47.9111 4.13121 48.3703 4.24644C50.4368 4.70735 52.4649 5.3219 54.4549 6.09008C57.5928 7.31917 60.5777 8.93235 63.333 11.0449C67.0833 13.9255 70.183 17.4208 72.2494 22.0299C72.479 22.5292 72.6704 23.0669 72.8617 23.5662C73.6271 25.7171 74.048 27.9449 74.0863 30.1726C74.0863 30.7487 74.0863 31.3249 74.048 31.8626C74.0097 32.9381 73.8567 34.0135 73.6653 35.0506Z" fill="black"/>
<path d="M52.1205 31.0561C52.3501 38.3154 50.3219 44.8833 46.9926 51.1056C46.9543 51.144 46.9161 51.2209 46.8778 51.2593C46.0742 52.642 44.8496 53.1797 43.7398 52.642C42.4005 51.989 42.0178 50.6447 42.7449 49.0315C43.2041 48.0329 43.625 47.0343 44.0843 46.074C45.5384 43.1165 46.4951 40.0054 46.8395 36.779C47.1457 33.8215 47.5284 30.864 47.1457 27.8297C46.8013 24.949 46.3803 22.1451 45.4619 19.4181C44.9262 17.8433 44.2373 16.3454 43.5868 14.809C43.2041 13.9256 42.7832 13.0806 42.4387 12.1972C41.9795 11.0833 42.3239 10.1231 43.3954 9.43172C44.4287 8.77877 45.2706 8.81717 46.1125 9.73899C46.6099 10.2767 47.0309 10.9297 47.4136 11.621C50.6663 17.7665 52.3118 24.2576 52.1205 31.0561Z" fill="black"/>
<path d="M37.8849 31.8242C37.9231 26.639 37.043 22.5676 35.0531 18.7267C34.7469 18.1121 34.4025 17.4976 34.1346 16.8062C33.6754 15.5003 34.0198 14.4249 35.0531 13.8103C36.0863 13.1574 36.9282 13.2342 37.8083 14.1176C38.191 14.5017 38.5354 15.001 38.8033 15.5003C40.7932 19.2644 42.0943 23.1821 42.5918 27.4455C43.3189 33.8983 42.0561 39.8901 39.3008 45.6131C38.8798 46.4581 38.191 47.1878 37.5787 47.8792C37.0813 48.4553 36.4307 48.6858 35.6653 48.3785C34.8234 48.0328 34.0964 47.4951 33.9816 46.4965C33.8668 45.5362 34.2112 44.7297 34.6321 43.9231C35.7801 41.6953 36.622 39.3908 37.2343 36.9326C37.7318 34.9737 37.9231 32.9765 37.8849 31.8242Z" fill="black"/>
<path d="M33.331 31.0176C33.5223 35.1274 32.3743 38.7763 30.3844 42.2331C30.193 42.5788 30.0017 42.886 29.7721 43.1933C28.8536 44.3072 27.9352 44.4992 26.9403 43.9231C25.6774 43.1549 25.333 42.2331 25.8688 40.8503C26.5958 38.8915 27.5525 36.971 28.0118 34.9353C28.9302 31.1328 28.624 27.3687 27.0168 23.7199C26.5576 22.7212 26.0984 21.761 25.754 20.724C25.3713 19.6101 25.7922 18.7267 26.7872 18.1121C27.5908 17.6128 28.7388 17.6896 29.4277 18.4194C29.8869 18.8419 30.2313 19.4181 30.5374 19.9558C32.4126 23.3742 33.5223 27.0615 33.331 31.0176Z" fill="black"/>
<path d="M24.5295 30.9408C24.4912 33.5526 23.9172 36.0108 22.3865 38.1617C22.0421 38.6226 21.6976 39.0835 21.2384 39.4292C20.2435 40.2742 19.5929 40.3126 18.6362 39.6981C17.7561 39.122 17.2968 38.0081 17.603 37.0095C17.7943 36.3949 18.1387 35.8572 18.4449 35.281C19.9373 32.3235 19.9756 29.4044 18.4449 26.4854C18.2535 26.1013 18.0239 25.7172 17.8326 25.2947C17.2968 24.0656 17.4882 23.259 18.5214 22.414C19.4781 21.6074 20.2817 21.569 21.2384 22.414C21.6976 22.8365 22.1569 23.2974 22.5013 23.8735C23.7641 26.0629 24.5677 28.3674 24.5295 30.9408Z" fill="black"/>
</svg>
