<svg width="501" height="789" viewBox="0 0 501 789" fill="none" xmlns="http://www.w3.org/2000/svg">
<g id="Group">
<path id="Vector" d="M493.007 673.4C492.607 703.1 468.007 727.4 438.307 727.4H137.907C108.207 727.4 83.5069 703.1 83.0069 673.4L74.5069 125.1C74.0069 95.4001 97.9069 71.1001 127.607 71.1001H446.707C476.407 71.1001 500.407 95.4001 500.007 125.1L493.007 673.4Z" fill="#58575E"/>
<path id="Vector_2" d="M459.207 728.1C458.807 761.2 431.307 788.3 398.207 788.3H70.6069C37.5069 788.3 10.0069 761.2 9.50694 728.1L0.00693508 110.5C-0.493065 77.3999 26.1069 77.1999 59.2069 77.1999H407.607C439.707 77.1999 468.407 32.5999 467.007 137.4L459.207 728.1Z" fill="#424242"/>
<path id="Vector_3" d="M493.007 564.9C492.607 594.6 468.007 618.9 438.307 618.9H137.907C108.207 618.9 83.5069 594.6 83.0069 564.9L76.0069 112.7C75.0069 116.9 74.4069 121.3 74.5069 125.9L83.0069 674.2C83.5069 703.9 108.207 728.2 137.907 728.2H438.207C467.907 728.2 492.507 703.9 492.907 674.2L499.907 125.9C499.907 121.8 499.507 117.8 498.707 113.9L493.007 564.9Z" fill="#404040"/>
<path id="Vector_4" d="M308.507 727.4L450.107 707.2C463.207 707.2 475.207 702.5 484.707 694.7L493.007 83.7C483.707 75.8 471.707 71 458.507 71H326.807C321.807 234.1 312.307 551.5 308.507 727.4Z" fill="#21211F"/>
<path id="Vector_5" d="M459.207 671.1C458.807 704.2 431.307 731.3 398.207 731.3H70.6069C37.5069 731.3 10.0069 704.2 9.50694 671.1L0.00693508 60.2C-0.493065 27.1 26.1069 0 59.2069 0H407.607C440.707 0 467.407 27.1 467.007 60.2L459.207 671.1Z" fill="#58575E"/>
<path id="Vector_6" d="M407.607 0H59.2069C48.6069 0 38.7069 3 30.1069 8.2L36.7069 642C37.1069 672.7 61.0069 697.8 89.8069 697.8H376.707C405.607 697.8 429.407 672.7 429.707 642L434.907 7.1C426.807 2.6 417.507 0 407.607 0Z" fill="#383836"/>
<path id="Vector_7" d="M376.707 102C387.807 102 396.807 111.8 396.707 123.8L392.307 623.6C392.207 635.6 383.007 645.4 372.007 645.4H94.3069C83.2069 645.4 74.0069 635.6 73.9069 623.6L68.3069 123.8C68.2069 111.8 77.1069 102 88.2069 102H376.707Z" fill="#666666"/>
<path id="Vector_8" d="M459.207 671.1C458.807 704.2 431.307 731.3 398.207 731.3H70.6069C37.5069 731.3 10.0069 704.2 9.50694 671.1L0.706935 101C0.306935 104.1 0.00693512 107.2 0.00693512 110.4L9.50694 728C10.0069 761.1 37.6069 788.2 70.6069 788.2H398.207C431.307 788.2 458.707 761.1 459.207 728L467.007 137.2C467.007 134.3 466.807 131.5 466.407 128.7L459.207 671.1Z" fill="#404040"/>
<path id="Vector_9" opacity="0.1" d="M59.2069 0C48.6069 0 38.7069 2.8 30.1069 7.7L35.4069 489.5C115.607 419.4 325.907 292.1 433.507 199.8L435.007 6.7C426.807 2.4 417.507 0 407.607 0H59.2069Z" fill="#F1F2F2"/>
<path id="Vector_10" d="M376.401 102H87.9008C76.8008 102 67.9008 111.1 68.0008 122.2L70.4008 329.9H394.401L396.301 122.2C396.501 111.1 387.501 102 376.401 102Z" fill="#182221"/>
<path id="Vector_11" d="M434.307 58.9L434.907 6.6C426.807 2.4 417.507 0 407.607 0H59.2069C48.6069 0 38.7069 2.8 30.1069 7.7L30.9069 59H434.307V58.9Z" fill="#383836"/>
<g id="Group_2">
<path id="Vector_12" d="M185.007 679.3V664.9H188.807C190.207 664.9 191.207 665 191.607 665.1C192.307 665.3 192.907 665.8 193.307 666.5C193.807 667.2 194.007 668.2 194.007 669.3C194.007 670.3 193.807 671.2 193.407 671.9C193.007 672.6 192.507 673.1 191.907 673.4C191.307 673.7 190.307 673.8 188.807 673.8H187.207V679.2H185.007V679.3ZM187.407 667.4V671.5H188.707C189.607 671.5 190.207 671.4 190.507 671.3C190.807 671.2 191.107 670.9 191.307 670.6C191.507 670.3 191.607 669.9 191.607 669.4C191.607 668.9 191.507 668.5 191.307 668.2C191.107 667.9 190.807 667.7 190.507 667.5C190.207 667.4 189.507 667.3 188.507 667.3H187.407V667.4Z" fill="#C2B59B"/>
<path id="Vector_13" d="M208.707 679.3H206.107L205.107 676H200.407L199.407 679.3H196.907L201.507 664.9H204.007L208.707 679.3ZM204.307 673.6L202.707 668.2L201.107 673.6H204.307Z" fill="#C2B59B"/>
<path id="Vector_14" d="M214.807 679.3V673.2L210.507 664.8H213.307L216.107 670.5L218.807 664.8H221.507L217.107 673.2V679.3H214.807Z" fill="#C2B59B"/>
<path id="Vector_15" d="M225.907 679.3V664.9H229.507L231.707 674.8L233.807 664.9H237.407V679.3H235.207V668L232.807 679.4H230.507L228.207 668V679.4H225.907V679.3Z" fill="#C2B59B"/>
<path id="Vector_16" d="M242.907 679.3V664.9H251.707V667.3H245.307V670.5H251.207V672.9H245.307V676.8H251.907V679.2H242.907V679.3Z" fill="#C2B59B"/>
<path id="Vector_17" d="M257.207 679.3V664.9H259.507L264.307 674.5V664.9H266.507V679.3H264.107L259.307 669.9V679.3H257.207Z" fill="#C2B59B"/>
<path id="Vector_18" d="M275.007 679.3V667.3H271.507V664.9H280.907V667.3H277.407V679.3H275.007Z" fill="#C2B59B"/>
</g>
<path id="Vector_19" d="M388.507 747.4H79.1069V756.2H388.507V747.4Z" fill="#21211F"/>
<path id="Vector_20" d="M388.507 756.2H79.1069V765H388.507V756.2Z" fill="#58575E"/>
</g>
</svg>
